<?xml version="1.0" encoding="UTF-8"?>
<svg id="Layer_1" xmlns="http://www.w3.org/2000/svg" viewBox="0 0 100.41 2525.28">
  <defs>
    <style>
      .cls-1 {
        fill: #5d554b;
      }
    </style>
  </defs>
  <path class="cls-1" d="M91.79,138.54c3.8-7.12,6.59-11.66,8.61-137.02,0,0-2.03-1.51-2.79-1.51-.76.15-1.52.61-2.28,1.51-5.07,7.87,4.31,92.05,0,115.07-2.03,9.99-4.81,14.08-8.61,21.2-3.8,7.27-11.15,12.72-14.19,21.95-4.31,13.93,2.03,45.88-.25,54.35-.76,2.73-2.03,2.42-2.79,5.3-3.04,9.84,0,56.17-3.04,68.74-1.27,4.84-1.27,6.66-4.31,9.99-4.05,4.24-15.46,8.33-20.27,12.42-3.55,3.03-5.57,4.09-7.6,9.24-6.84,16.65-4.31,88.27-1.77,114.31,1.01,13.63,4.81,20.29,5.83,30.89,1.27,11.2,0,22.1,1.01,34.22,1.01,14.08,4.56,24.22,6.08,44.97,3.29,46.94-3.04,164.73,1.77,228.62,3.55,46.03,14.44,77.82,17.48,118.85,3.29,43.76,1.52,93.42.51,136.26-.73,27.53-3,54.98-4.88,82.45-1.09,15.86-1.57,31.84-3.45,47.55-1.53,12.84-1.59,25.92-2.01,38.82-.12,3.74-.24,7.47-.39,11.21-.84,21.2-1.26,47.04.21,64.06,1.05,11.27,2.74,18.37,5.05,28.15,2.53,10.75,7.37,19.11,9.68,33.6,3.79,26.58-1.26,89.67,1.47,112.74,1.26,10.23,4.21,15.23,5.05,22.17.84,6.05-.21,11.57.84,17.02.84,5.23,4,8.51,4.84,15.08,2.1,12.47,2.1,45.99-1.05,54.2-.84,2.46-1.05,3.06-3.58,4.7-3.58,2.31-15.78,5.08-19.57,7.54-2.74,1.79-5.47,62.34-9.26,69.21-2.31,4.33-8.42,6.64-11.57,10.08-4.08,4.43-4.19,11.6-4.74,17.23-1.01,10.3-1.41,20.67-1.8,31.01-.57,15-1.84,29.98-3.1,44.99-1.53,18.27-1.37,36.74-1.89,55.1-.84,30.56-1.26,67.79.21,92.32,1.05,16.25,2.74,26.47,5.05,40.56,2.53,15.49,7.37,27.55,9.68,48.42,3.79,38.3-1.26,129.23,1.47,162.47,1.26,14.74,4.21,21.95,5.05,31.96.84,8.72-.21,16.68.84,24.53.84,7.53,4,12.27,4.84,21.73,2.1,17.97,2.1,66.28-1.05,78.12-.84,3.55-1.05,4.41-3.58,6.78-3.58,3.34-15.78,7.32-19.57,10.87-2.74,2.58-2.95,3.98-4,7.75-2.53,8.82-.21,37.55-2.1,45.62-.84,3.01-2.1,3.12-2.74,6.03-1.68,7.53,3.37,30.45-.42,40.35-2.32,6.24-8.42,9.58-11.58,14.53-3.16,5.06-5.47,8.29-7.16,97.38,0,0,1.68,1.08,2.32,1.08.63-.11,1.26-.43,1.89-1.08,4.21-5.6-3.58-65.42,0-81.77,1.68-7.1,4-10.01,7.16-15.06,3.16-5.16,9.26-9.04,11.79-15.6,3.58-9.9-1.68-32.6.21-38.63.63-1.94,1.68-1.72,2.32-3.77,2.53-6.99,0-39.92,2.53-48.85,1.05-3.44,1.05-4.73,3.58-7.1,3.37-3.01,12.84-5.92,16.84-8.82,2.95-2.15,4.63-2.91,6.31-6.56,5.68-11.84,3.58-62.73,1.47-81.24-.84-9.68-4-14.42-4.84-21.95-1.05-7.96,0-15.71-.84-24.32-.84-10.01-3.79-17.22-5.05-31.96-2.74-33.36,2.53-117.07-1.47-162.47-2.95-32.71-12-55.31-14.52-84.46-2.74-31.1-1.26-66.39-.42-96.84.23-7.55.68-15.09,1.2-22.63.48-6.95,1.04-13.89,1.61-20.83.84-10.2,2.38-20.37,2.73-30.66.37-10.86-.11-21.74-.96-32.56-.47-5.95-.97-11.91-1.13-17.88-.12-4.21-.36-8.88.92-12.96,1.68-4.93,4-6.94,7.16-10.45,3.16-3.58,9.26-6.27,11.79-10.83,3.58-6.87,6.1-66.6,8.63-68.24,3.37-2.09,12.84-4.11,16.84-6.12,2.95-1.49,4.63-2.02,6.31-4.55,5.68-8.21,3.58-43.53,1.47-56.37-.84-6.72-4-10-4.84-15.23-1.05-5.52,0-10.9-.84-16.87-.84-6.94-3.79-11.95-5.05-22.17-2.74-23.14,2.53-81.23-1.47-112.74-2.95-22.7-12-38.38-14.52-58.61-2.74-21.58-1.26-46.07-.42-67.19.11-2.41.26-4.82.44-7.22.35-4.56,5.79-62.51,6.11-66.13,1.17-13.48,2.34-26.95,3.51-40.43.55-6.31-.09-12.81.15-19.18s.69-13.3.81-19.95c.17-9.04.35-18.08.56-27.12,1.01-43,1.52-95.38-.25-129.91-1.27-22.86-3.29-37.25-6.08-57.08-3.04-21.8-8.87-38.76-11.65-68.13-4.56-53.9,1.52-181.84-1.77-228.62-1.52-20.74-5.07-30.89-6.08-44.97-1.01-12.26.25-23.47-1.01-34.52-1.01-10.6-4.81-17.26-5.83-30.58-2.53-25.28-2.53-93.27,1.27-109.92,1.01-5,1.27-6.21,4.31-9.54,4.31-4.69,19-10.3,23.56-15.29,3.29-3.63,3.55-5.6,4.81-10.9,3.04-12.42.25-52.84,2.53-64.2,1.01-4.24,2.53-4.39,3.29-8.48,2.03-10.6-4.05-42.85.51-56.78,2.79-8.78,10.13-13.47,13.94-20.44Z"/>
</svg>