<?xml version="1.0" encoding="utf-8"?>
<!-- Generator: Adobe Illustrator 26.0.2, SVG Export Plug-In . SVG Version: 6.00 Build 0)  -->
<svg version="1.1" id="Layer_1" xmlns="http://www.w3.org/2000/svg" xmlns:xlink="http://www.w3.org/1999/xlink" x="0px" y="0px"
	 viewBox="0 0 200 200" style="enable-background:new 0 0 200 200;" xml:space="preserve">
<style type="text/css">
	.st0{fill:#FFFFFF;}
</style>
<path class="st0" d="M71.7,85.5l0.3-0.2c0.5-0.3,1.1-0.2,1.5,0.2l25.7,25.4c0.5,0.5,1.2,0.5,1.6,0l25.6-25.4c0.4-0.4,1-0.4,1.5-0.2
	l0.3,0.2c0.6,0.4,0.7,1.3,0.2,1.8l-27.6,27.3c-0.5,0.5-1.2,0.5-1.6,0L71.5,87.3C71,86.7,71.1,85.9,71.7,85.5z"/>
<path class="st0" d="M71.4,105.9l0.3-0.2c0.5-0.3,1.1-0.2,1.5,0.2l25.7,25.4c0.5,0.5,1.2,0.5,1.6,0l25.6-25.4c0.4-0.4,1-0.4,1.5-0.2
	l0.3,0.2c0.6,0.4,0.7,1.3,0.2,1.8L100.6,135c-0.5,0.5-1.2,0.5-1.6,0l-27.7-27.3C70.7,107.2,70.8,106.3,71.4,105.9z"/>
</svg>
