<?xml version="1.0" encoding="utf-8"?>
<!-- Generator: Adobe Illustrator 26.0.2, SVG Export Plug-In . SVG Version: 6.00 Build 0)  -->
<svg version="1.1" id="Layer_1" xmlns="http://www.w3.org/2000/svg" xmlns:xlink="http://www.w3.org/1999/xlink" x="0px" y="0px"
	 viewBox="0 0 120 120" style="enable-background:new 0 0 120 120;" xml:space="preserve">
<style type="text/css">
	.st0{fill:#FFFFFF;}
</style>
<g>
	<path class="st0" d="M85.8,120H34.2c-4.6,0-8.4-3.8-8.4-8.4V8.4c0-4.6,3.8-8.4,8.4-8.4h51.6c4.6,0,8.4,3.8,8.4,8.4v103.2
		C94.2,116.2,90.4,120,85.8,120z M34.2,3.9c-2.5,0-4.5,2-4.5,4.5v103.2c0,2.5,2,4.5,4.5,4.5h51.6c2.5,0,4.5-2,4.5-4.5V8.4
		c0-2.5-2-4.5-4.5-4.5L34.2,3.9z"/>
	<polygon class="st0" points="73.7,10.3 46.3,10.3 39.3,3.3 42,0.6 47.9,6.4 72.1,6.4 78,0.6 80.7,3.3 	"/>
</g>
</svg>
