<?xml version="1.0" encoding="utf-8"?>
<!-- Generator: Adobe Illustrator 26.0.2, SVG Export Plug-In . SVG Version: 6.00 Build 0)  -->
<svg version="1.1" id="Layer_1" xmlns="http://www.w3.org/2000/svg" xmlns:xlink="http://www.w3.org/1999/xlink" x="0px" y="0px"
	 viewBox="0 0 800 800" style="enable-background:new 0 0 800 800;" xml:space="preserve">
<style type="text/css">
	.st0{fill:none;}
	.st1{fill:#FFFFFF;}
</style>
<path class="st0" d="M800,400C800,179.1,620.9,0,400,0C179.1,0,0,179.1,0,400c0,220.9,179.1,400,400,400
	C620.9,800,800,620.9,800,400z"/>
<path class="st1" d="M418.3,207.9c-5.5-3-12.2-2.7-17.4,0.7l-153.4,99.6h-56.7c-9.4,0-17.1,7.6-17.1,17.1v149.5
	c0,9.4,7.6,17.1,17.1,17.1h56.7l153.4,99.6c2.8,1.8,6.1,2.8,9.3,2.8c2.8,0,5.6-0.7,8.1-2.1c5.5-3,8.9-8.7,8.9-15V222.9
	C427.2,216.6,423.8,210.8,418.3,207.9z"/>
<path class="st1" d="M573.1,400l49-49c5.7-5.7,5.7-14.9,0-20.5c-5.7-5.7-14.9-5.7-20.5,0l-49,49l-49-49c-5.7-5.7-14.9-5.7-20.5,0
	c-5.7,5.7-5.7,14.9,0,20.5l49,49l-49,49c-5.7,5.7-5.7,14.9,0,20.5c2.8,2.8,6.5,4.3,10.3,4.3c3.7,0,7.4-1.4,10.3-4.3l49-49l49,49
	c2.8,2.8,6.5,4.3,10.3,4.3c3.7,0,7.4-1.4,10.3-4.3c5.7-5.7,5.7-14.9,0-20.5L573.1,400z"/>
</svg>
