<?xml version="1.0" encoding="utf-8"?>
<!-- Generator: Adobe Illustrator 26.0.2, SVG Export Plug-In . SVG Version: 6.00 Build 0)  -->
<svg version="1.1" id="Layer_1" xmlns="http://www.w3.org/2000/svg" xmlns:xlink="http://www.w3.org/1999/xlink" x="0px" y="0px"
	 viewBox="0 0 800 800" style="enable-background:new 0 0 800 800;" xml:space="preserve">
<style type="text/css">
	.st0{fill:none;}
	.st1{fill:#FFFFFF;}
</style>
<path class="st0" d="M800,400C800,179.1,620.9,0,400,0C179.1,0,0,179.1,0,400c0,220.9,179.1,400,400,400
	C620.9,800,800,620.9,800,400z"/>
<path class="st1" d="M459.3,207.9c-5.5-3-12.2-2.7-17.4,0.7l-153.4,99.6h-56.7c-9.4,0-17.1,7.6-17.1,17.1v149.5
	c0,9.4,7.6,17.1,17.1,17.1h56.7l153.4,99.6c2.8,1.8,6.1,2.8,9.3,2.8c2.8,0,5.6-0.7,8.1-2.1c5.5-3,8.9-8.7,8.9-15V222.9
	C468.2,216.6,464.8,210.8,459.3,207.9z"/>
<path class="st1" d="M515.7,520.7c1.4,0,2.9-0.3,4.3-0.8c39.1-15.2,65.3-62.1,65.3-116.7c0-48.3-21.3-92-54.2-111.3
	c-5.7-3.3-13-1.4-16.4,4.3c-3.3,5.7-1.4,13,4.3,16.4c25.8,15.1,42.4,50.7,42.4,90.6c0,44.1-20.6,82.9-50.1,94.4
	c-6.2,2.4-9.2,9.3-6.8,15.5C506.4,517.8,510.9,520.7,515.7,520.7z"/>
<path class="st1" d="M581.9,549.3c1.8,0,3.6-0.3,5.4-1c48.8-18.9,81.6-77.5,81.6-145.7c0-60.3-26.6-114.9-67.7-139
	c-7.1-4.2-16.3-1.8-20.4,5.3c-4.2,7.1-1.8,16.3,5.3,20.4c32.2,18.8,52.9,63.3,52.9,113.2c0,55.1-25.7,103.5-62.5,117.8
	c-7.7,3-11.5,11.6-8.5,19.3C570.3,545.7,575.9,549.3,581.9,549.3z"/>
</svg>
